<svg xmlns="http://www.w3.org/2000/svg" viewBox="0 0 229.66 185.21"><defs><style>.cls-1{fill:#404c41;}</style></defs><g id="Layer_2" data-name="Layer 2"><g id="Layer_1-2" data-name="Layer 1"><path class="cls-1" d="M224.82,56.15c-6.65-10.37-16.06-12.33-26.45-5.87-.78.48-1.38,1.54-3.16.94,0-1.39.09-2.71,0-4-.88-11-8.78-16.55-19.39-13.57a18.5,18.5,0,0,0-5,2.06c-2,1.27-3,1-4.25-1.06-2.91-4.64-7.31-6.07-12.5-4.48-2.24.68-3,.82-3.15-2.07C150,14.4,138.48,7.85,126.18,14c-1.87.93-2.31.64-3.31-1C116.53,2.66,106.81-1.2,95.29.32c-11.9,1.57-18,9.94-20.39,20.93-1.26,5.81-1.55,11.31-8.8,13.26-3.21.87-4.54,4.6-5.44,7.89-.4,1.49-.77,3-1.2,4.66-7.34-6.68-12.31-6.21-16.7,1.25A9.57,9.57,0,0,0,41.41,51c-.72,3.34-2,3.6-5,1.88-5.55-3.18-11-1.52-14.68,3.77-2.92,4.17-3.16,8.91-2.82,14a31.16,31.16,0,0,1-3.1-.44C10.37,68.81,5.44,69.51,2.1,74.4-1,79-.43,83.88,2.42,88.44a11.85,11.85,0,0,0,13.9,5.08c5-1.65,7.58-.54,9.12,4.26a13.26,13.26,0,0,0,2.11,3.35c4.95,7,10.8,8.09,18,3.44,2-1.28,3.85-2.77,5.82-4.2,9.55,19.73,17.93,20.53,31.84,3.26.67,1.18,1.26,2.33,1.94,3.42,11.09,18,33.54,19.36,46.68,2.87a26.52,26.52,0,0,0,3.41-4.87c1.6-3.33,2.58-2.85,4.42,0,6.39,9.78,17.83,14,29.55,11.1q15.34-3.73,17.35-22.72c0-.24.35-.44.73-.9,4.58,3,9.59,4.64,14.78,1.71,5.4-3,5.23-8.59,5.17-14.13,1.79.64,3.16,1.18,4.55,1.64,7.73,2.5,13.67-.52,16.78-8C231.42,66.86,228.22,61.45,224.82,56.15Z"/><path class="cls-1" d="M135.21,143.88c1.7-8.21,2.77-16.56,4.16-24.84.19-1.11.11-1.92-1-2.42-1.59-.71-1.91.6-2.55,1.52-3.2,4.59-6.48,9.13-9.65,13.74-2.7,3.94-5.57,7.83-6.44,12.67-1,5.33,2.11,9.15,7.38,9C132.55,152.91,134.28,148.4,135.21,143.88Z"/><path class="cls-1" d="M90.62,142.19c-1.16-.42-1.72.21-2.35,1.15-4.44,6.59-9.07,13-13.38,19.72A22.46,22.46,0,0,0,72,170.39c-1.06,4.92,2.16,8.72,6.92,8.68,4.1,0,7.21-2.88,8.46-9,1.72-8.43,2.86-17,4.26-25.46C91.78,143.57,91.83,142.62,90.62,142.19Z"/><path class="cls-1" d="M30.76,138.91a1.36,1.36,0,0,0-1.75.44c-3.85,6-9.7,10.49-12.54,17.16-1.94,4.53.13,8,5.12,8.08,3.67-.24,5.67-3,6.46-6.59,1.25-5.64,2.14-11.36,3.22-17C31.41,140.17,31.89,139.37,30.76,138.91Z"/><path class="cls-1" d="M163.19,156.89c3.56,1,5.2-1.52,6.07-4.36,2.24-7.28,2.26-14.88,2.69-22.64-4,6.68-9.79,12.3-11.67,20C159.6,152.7,159.65,155.86,163.19,156.89Z"/><path class="cls-1" d="M129.54,177c-1.75,2.57-2.79,5.88.86,7.59s6.15-.55,7-4c1.26-5.21,2.07-10.53,3.07-15.81l-1.41-.62C135.86,168.43,132.54,172.62,129.54,177Z"/><path class="cls-1" d="M51.2,133.43c-1.65,2.53-2.66,5.94,1.26,7.49,3.43,1.37,5.64-.65,6.68-4,1.63-5.21,2.12-10.59,2.88-15.93l-1.25-.56C57.55,124.75,54.13,128.92,51.2,133.43Z"/></g></g></svg>